<svg width="592" height="592" viewBox="0 0 592 592" fill="none" xmlns="http://www.w3.org/2000/svg">
<g clip-path="url(#clip0_1450_777)">
<path d="M296 446C378.843 446 446 378.843 446 296C446 213.157 378.843 146 296 146C213.157 146 146 213.157 146 296C146 378.843 213.157 446 296 446Z" fill="#FEB5FF"/>
<path d="M121 156C162.421 156 196 122.421 196 81C196 39.5786 162.421 6 121 6C79.5786 6 46 39.5786 46 81C46 122.421 79.5786 156 121 156Z" fill="#FEB5FF"/>
<path d="M296 0C459.476 0 592 132.524 592 296C592 459.476 459.476 592 296 592C132.524 592 0 459.476 0 296C0 240.015 15.5431 187.661 42.5488 143.016C52.2247 155.239 64.696 165.148 78.998 171.776C58.0035 208.372 46 250.784 46 296C46 434.071 157.929 546 296 546C434.071 546 546 434.071 546 296C546 157.929 434.071 46 296 46C268.913 46 242.832 50.3075 218.405 58.2754C214.792 42.7248 207.55 28.5668 197.621 16.7402C228.4 5.89728 261.512 0 296 0Z" fill="#5AC1FF"/>
</g>
<defs>
<clipPath id="clip0_1450_777">
<rect width="592" height="592" fill="white"/>
</clipPath>
</defs>
</svg>
